<svg width="20" height="20" viewBox="0 0 20 20" fill="none" xmlns="http://www.w3.org/2000/svg">
<g id="fi_7046678" clip-path="url(#clip0_77_85)">
<path id="XMLID_419_" d="M10 0.588257C4.81179 0.588257 0.588257 4.81179 0.588257 10C0.588257 15.1941 4.81179 19.4118 10 19.4118C15.1883 19.4118 19.4118 15.1941 19.4118 10C19.4118 4.81179 15.1883 0.588257 10 0.588257ZM14.6177 12.1412C14.9647 12.4883 14.9647 13.0471 14.6177 13.3883L13.3941 14.6118C13.0647 14.9471 12.4765 14.9471 12.1471 14.6118L10 12.4706L7.85296 14.6118C7.68237 14.7883 7.45296 14.8706 7.22943 14.8706C7.00002 14.8706 6.77649 14.7883 6.6059 14.6118L5.38237 13.3883C5.21767 13.2236 5.12355 13 5.12355 12.7647C5.12355 12.5353 5.21767 12.3059 5.38237 12.1412L7.52355 9.99414L5.38237 7.84708C5.03532 7.5059 5.03532 6.94708 5.38237 6.60002L6.6059 5.37649C6.93532 5.04708 7.52355 5.04708 7.85296 5.37649L10 7.51767L12.2647 5.25296C12.6 4.92355 13.1883 4.92355 13.5177 5.25296L14.7412 6.47649C15.0883 6.82355 15.0883 7.38237 14.7412 7.72355L12.4765 9.99414L14.6177 12.1412Z" fill="#DE5353"/>
</g>
<defs>
<clipPath id="clip0_77_85">
<rect width="20" height="20" fill="white"/>
</clipPath>
</defs>
</svg>
