<svg width="25" height="25" viewBox="0 0 25 25" fill="none" xmlns="http://www.w3.org/2000/svg">
<g id="fi_561169" clip-path="url(#clip0_90_931)">
<g id="Group">
<g id="Group_2">
<path id="Vector" d="M12.5488 0C5.68311 0 0 5.58545 0 12.4512C0 19.3169 5.68311 25 12.5488 25C19.4146 25 25 19.3169 25 12.4512C25 5.58545 19.4146 0 12.5488 0ZM19.1406 13.916H14.0137V19.1406C14.0137 19.9482 13.356 20.6055 12.5488 20.6055C11.7412 20.6055 11.084 19.9482 11.084 19.1406V13.916H5.85938C5.05176 13.916 4.39453 13.2588 4.39453 12.4512C4.39453 11.6436 5.05176 10.9863 5.85938 10.9863H11.084V5.85938C11.084 5.05176 11.7412 4.39453 12.5488 4.39453C13.356 4.39453 14.0137 5.05176 14.0137 5.85938V10.9863H19.1406C19.9478 10.9863 20.6055 11.6436 20.6055 12.4512C20.6055 13.2588 19.9478 13.916 19.1406 13.916Z" fill="white"/>
</g>
</g>
</g>
<defs>
<clipPath id="clip0_90_931">
<rect width="25" height="25" fill="white"/>
</clipPath>
</defs>
</svg>
