<svg width="20" height="20" viewBox="0 0 20 20" fill="none" xmlns="http://www.w3.org/2000/svg">
<g id="fi_3839020" clip-path="url(#clip0_90_707)">
<path id="Vector" d="M0.625 3.52573H10.1408C10.4276 4.83115 11.5934 5.81119 12.9837 5.81119C14.374 5.81119 15.5398 4.83119 15.8266 3.52573H19.375C19.7202 3.52573 20 3.24588 20 2.90073C20 2.55557 19.7202 2.27573 19.375 2.27573H15.8263C15.5389 0.970959 14.3716 -0.00970459 12.9837 -0.00970459C11.5951 -0.00970459 10.4283 0.970803 10.1411 2.27573H0.625C0.279844 2.27573 0 2.55557 0 2.90073C0 3.24588 0.279844 3.52573 0.625 3.52573ZM11.3233 2.90237C11.3233 2.90014 11.3234 2.89787 11.3234 2.89565C11.3261 1.98287 12.0709 1.24033 12.9837 1.24033C13.8952 1.24033 14.6401 1.98186 14.644 2.8942L14.6441 2.90338C14.6427 3.81772 13.8984 4.56123 12.9837 4.56123C12.0694 4.56123 11.3254 3.81846 11.3233 2.90467L11.3233 2.90237ZM19.375 16.4742H15.8263C15.5389 15.1695 14.3716 14.1888 12.9837 14.1888C11.5951 14.1888 10.4283 15.1693 10.1411 16.4742H0.625C0.279844 16.4742 0 16.754 0 17.0992C0 17.4444 0.279844 17.7242 0.625 17.7242H10.1408C10.4276 19.0296 11.5934 20.0097 12.9837 20.0097C14.374 20.0097 15.5398 19.0296 15.8266 17.7242H19.375C19.7202 17.7242 20 17.4444 20 17.0992C20 16.754 19.7202 16.4742 19.375 16.4742ZM12.9837 18.7597C12.0694 18.7597 11.3254 18.0169 11.3233 17.1031L11.3233 17.1008C11.3233 17.0986 11.3234 17.0963 11.3234 17.0941C11.3261 16.1813 12.0709 15.4388 12.9837 15.4388C13.8952 15.4388 14.6401 16.1803 14.644 17.0926L14.6441 17.1018C14.6428 18.0162 13.8985 18.7597 12.9837 18.7597ZM19.375 9.37498H9.85918C9.57238 8.06955 8.4066 7.08955 7.01629 7.08955C5.62598 7.08955 4.4602 8.06955 4.1734 9.37498H0.625C0.279844 9.37498 0 9.65483 0 9.99998C0 10.3452 0.279844 10.625 0.625 10.625H4.17371C4.46109 11.9297 5.62844 12.9104 7.01629 12.9104C8.40488 12.9104 9.57172 11.9299 9.85895 10.625H19.375C19.7202 10.625 20 10.3452 20 9.99998C20 9.65483 19.7202 9.37498 19.375 9.37498ZM8.67668 9.99834C8.67668 10.0006 8.67664 10.0028 8.67664 10.0051C8.67391 10.9178 7.9291 11.6604 7.01629 11.6604C6.10477 11.6604 5.35992 10.9188 5.35598 10.0065L5.35586 9.99741C5.35723 9.08295 6.10156 8.33955 7.01629 8.33955C7.93059 8.33955 8.67465 9.08229 8.67672 9.99611L8.67668 9.99834Z" fill="#792139"/>
</g>
<defs>
<clipPath id="clip0_90_707">
<rect width="20" height="20" fill="white"/>
</clipPath>
</defs>
</svg>
