<svg width="20" height="20" viewBox="0 0 20 20" fill="none" xmlns="http://www.w3.org/2000/svg">
<g id="fi_4052107" clip-path="url(#clip0_77_116)">
<g id="Group">
<path id="Vector" d="M10 0.800049C4.88005 0.800049 0.800049 4.88005 0.800049 10C0.800049 15.12 4.88005 19.2 10 19.2C15.12 19.2 19.2 15.12 19.2 10C19.2 4.88005 15.12 0.800049 10 0.800049ZM13.2 12.32C12.96 12.64 12.4 12.72 12.08 12.4L9.52005 10.32C9.36005 10.16 9.20005 9.92005 9.20005 9.68005V5.20005C9.20005 4.72005 9.60005 4.40005 10 4.40005C10.48 4.40005 10.8 4.72005 10.8 5.20005V9.36005L13.04 11.2C13.44 11.52 13.44 12 13.2 12.32Z" fill="#A9A9A9"/>
</g>
</g>
<defs>
<clipPath id="clip0_77_116">
<rect width="20" height="20" fill="white"/>
</clipPath>
</defs>
</svg>
